# WaveFront *.obj file (generated by CINEMA 4D)

mtllib ./cube.mtl

v -1 -1 1
v -1 1 1
v 1 -1 1
v 1 1 1
v 1 -1 -1
v 1 1 -1
v -1 -1 -1
v -1 1 -1
# 8 vertices

vn 0 0 1
vn 1 0 0
vn 0 0 -1
vn -1 0 0
vn 0 1 0
vn 0 -1 0
# 6 normals

vt 1 1 0
vt 0 1 0
vt 0 0 0
vt 1 0 0
# 4 texture coordinates

o Cube
usemtl RandomColor_1
f 4/1/1 2/2/1 1/3/1
f 6/1/2 4/2/2 3/3/2
f 8/1/3 6/2/3 5/3/3
f 2/1/4 8/2/4 7/3/4
f 6/1/5 8/2/5 2/3/5
f 3/1/6 1/2/6 7/3/6
f 3/4/1 4/1/1 1/3/1
f 5/4/2 6/1/2 3/3/2
f 7/4/3 8/1/3 5/3/3
f 1/4/4 2/1/4 7/3/4
f 4/4/5 6/1/5 2/3/5
f 5/4/6 3/1/6 7/3/6

