# WaveFront *.obj file (generated by CINEMA 4D)

v -500 0 -500
v -300 0 -500
v -100 0 -500
v 100 0 -500
v 300 0 -500
v 500 0 -500
v -500 0 -300
v -300 0 -300
v -100 0 -300
v 100 0 -300
v 300 0 -300
v 500 0 -300
v -500 0 -100
v -300 0 -100
v -100 0 -100
v 100 0 -100
v 300 0 -100
v 500 0 -100
v -500 0 100
v -300 0 100
v -100 0 100
v 100 0 100
v 300 0 100
v 500 0 100
v -500 0 300
v -300 0 300
v -100 0 300
v 100 0 300
v 300 0 300
v 500 0 300
v -500 0 500
v -300 0 500
v -100 0 500
v 100 0 500
v 300 0 500
v 500 0 500
# 36 vertices

vn 0 1 0
# 1 normal

vt 0 0 0
vt 0 0.20000004768372 0
vt 0.20000000298023 0.20000004768372 0
vt 0.20000000298023 0 0
vt 0.40000000596046 0.20000004768372 0
vt 0.40000000596046 0 0
vt 0.60000002384186 0.20000004768372 0
vt 0.60000002384186 0 0
vt 0.80000001192093 0.20000004768372 0
vt 0.80000001192093 0 0
vt 1 0.20000004768372 0
vt 1 0 0
vt 0 0.39999997615814 0
vt 0.20000000298023 0.39999997615814 0
vt 0.40000000596046 0.39999997615814 0
vt 0.60000002384186 0.39999997615814 0
vt 0.80000001192093 0.39999997615814 0
vt 1 0.39999997615814 0
vt 0 0.60000002384186 0
vt 0.20000000298023 0.60000002384186 0
vt 0.40000000596046 0.60000002384186 0
vt 0.60000002384186 0.60000002384186 0
vt 0.80000001192093 0.60000002384186 0
vt 1 0.60000002384186 0
vt 0 0.80000001192093 0
vt 0.20000000298023 0.80000001192093 0
vt 0.40000000596046 0.80000001192093 0
vt 0.60000002384186 0.80000001192093 0
vt 0.80000001192093 0.80000001192093 0
vt 1 0.80000001192093 0
vt 0 1 0
vt 0.20000000298023 1 0
vt 0.40000000596046 1 0
vt 0.60000002384186 1 0
vt 0.80000001192093 1 0
vt 1 1 0
# 36 texture coordinates

o Plane
usemtl default
f 1/1/1 7/2/1 8/3/1 2/4/1
f 2/4/1 8/3/1 9/5/1 3/6/1
f 3/6/1 9/5/1 10/7/1 4/8/1
f 4/8/1 10/7/1 11/9/1 5/10/1
f 5/10/1 11/9/1 12/11/1 6/12/1
f 7/2/1 13/13/1 14/14/1 8/3/1
f 8/3/1 14/14/1 15/15/1 9/5/1
f 9/5/1 15/15/1 16/16/1 10/7/1
f 10/7/1 16/16/1 17/17/1 11/9/1
f 11/9/1 17/17/1 18/18/1 12/11/1
f 13/13/1 19/19/1 20/20/1 14/14/1
f 14/14/1 20/20/1 21/21/1 15/15/1
f 15/15/1 21/21/1 22/22/1 16/16/1
f 16/16/1 22/22/1 23/23/1 17/17/1
f 17/17/1 23/23/1 24/24/1 18/18/1
f 19/19/1 25/25/1 26/26/1 20/20/1
f 20/20/1 26/26/1 27/27/1 21/21/1
f 21/21/1 27/27/1 28/28/1 22/22/1
f 22/22/1 28/28/1 29/29/1 23/23/1
f 23/23/1 29/29/1 30/30/1 24/24/1
f 25/25/1 31/31/1 32/32/1 26/26/1
f 26/26/1 32/32/1 33/33/1 27/27/1
f 27/27/1 33/33/1 34/34/1 28/28/1
f 28/28/1 34/34/1 35/35/1 29/29/1
f 29/29/1 35/35/1 36/36/1 30/30/1

